<?xml version="1.0" encoding="UTF-8" standalone="no"?>
<!-- Generator: Adobe Illustrator 19.1.1, SVG Export Plug-In . SVG Version: 6.00 Build 0)  -->

<svg
   version="1.1"
   id="Layer_1"
   x="0px"
   y="0px"
   viewBox="0 11 80 80"
   style="enable-background:new 0 11 80 80;"
   xml:space="preserve"
   sodipodi:docname="assetsfreeze2.svg"
   inkscape:version="1.1.2 (1:1.1+202202050950+0a00cf5339)"
   xmlns:inkscape="http://www.inkscape.org/namespaces/inkscape"
   xmlns:sodipodi="http://sodipodi.sourceforge.net/DTD/sodipodi-0.dtd"
   xmlns="http://www.w3.org/2000/svg"
   xmlns:svg="http://www.w3.org/2000/svg"><defs
   id="defs11" /><sodipodi:namedview
   id="namedview9"
   pagecolor="#ffffff"
   bordercolor="#666666"
   borderopacity="1.0"
   inkscape:pageshadow="2"
   inkscape:pageopacity="0.0"
   inkscape:pagecheckerboard="true"
   showgrid="false"
   inkscape:zoom="9.85"
   inkscape:cx="10.456853"
   inkscape:cy="43.096447"
   inkscape:window-width="1920"
   inkscape:window-height="960"
   inkscape:window-x="0"
   inkscape:window-y="27"
   inkscape:window-maximized="1"
   inkscape:current-layer="g6" />
<style
   type="text/css"
   id="style2">
	.st0{fill:#FFFFFF;}
	.st1{fill:none;stroke:#FFFFFF;stroke-width:2;stroke-linecap:round;stroke-linejoin:round;}
</style>
<g
   id="g6">
	<path
   id="path4"
   class="st0"
   transform="translate(0,11)"
   d="M 40.660156,10.042969 C 38.711719,9.9992188 36.750781,10.15 34.800781,10.5 27.000781,11.9 20.1,16.300781 15.5,22.800781 c -4.6,6.5 -6.4,14.498828 -5,22.298828 2.5,14.4 14.9,24.800782 29.5,24.800782 0.6,0 1,-0.4 1,-1 0,-0.6 -0.4,-1 -1,-1 -13.6,0 -25.200391,-9.79961 -27.400391,-23.09961 -1.4,-7.3 0.29961,-14.700781 4.59961,-20.800781 4.2,-6.1 10.7,-10.2 18,-11.5 7.3,-1.4 14.700781,0.299609 20.800781,4.599609 6.1,4.2 10.2,10.7 11.5,18 C 68.9,42.399609 67.200391,49.9 62.900391,56 c -4.3,6.1 -10.7,10.100391 -18,11.400391 -0.5,0.1 -0.900782,0.699218 -0.800782,1.199218 0.1,0.5 0.701172,0.900782 1.201172,0.800782 7.7,-1.4 14.69961,-5.701172 19.09961,-12.201172 4.6,-6.5 6.4,-14.498438 5,-22.398438 -1.4,-7.8 -5.800782,-14.700781 -12.300782,-19.300781 -4.875,-3.45 -10.59414,-5.325781 -16.439453,-5.457031 z m -0.726562,12.916015 c -0.152287,0.01114 -0.302758,0.0534 -0.433594,0.140625 l -0.214844,0.123047 c 0.216811,-0.08643 0.432876,-0.174251 0.648438,-0.263672 z m 14.515625,1.908204 c -0.02199,0.0017 0.03481,0.1198 0.113281,0.269531 2.58e-4,-0.04668 0.0035,-0.08772 0.0059,-0.132813 -0.02244,-0.03057 -0.03813,-0.06603 -0.06445,-0.09375 -0.02916,-0.03071 -0.0468,-0.04359 -0.05469,-0.04297 z m 0.140625,0.169921 c 0.0034,0.0682 0.0084,0.135675 0.01758,0.185547 0.05298,0.09877 0.09375,0.181917 0.148437,0.283203 0,0 0.002,0 0.002,0 0.01079,-0.0061 0.01316,-0.01062 0.02539,-0.01758 -0.0037,0.0076 -0.0061,0.01582 -0.0098,0.02344 0.02105,0.01297 0.04586,0.02446 0.07031,0.03516 -0.07214,-0.179105 -0.148968,-0.354643 -0.253906,-0.509766 z m 0.183594,0.47461 c -0.0045,-0.0027 -0.01132,-0.003 -0.01563,-0.0059 0.0037,0.0069 0.0061,0.01269 0.0098,0.01953 0.0021,-0.0045 0.0037,-0.0092 0.0059,-0.01367 z M 55.037109,25.625 c 0.0243,0.0094 0.04805,0.01979 0.07422,0.03125 3.45e-4,-0.0065 0.0016,-0.01301 0.002,-0.01953 -0.02553,-0.0029 -0.05055,-0.01007 -0.07617,-0.01172 z m -0.185547,0.0039 c 0.01573,0.01713 0.03267,0.03233 0.04883,0.04883 -0.0072,-0.01614 -0.01453,-0.03249 -0.02148,-0.04883 -0.0091,3.69e-4 -0.01822,-5.43e-4 -0.02734,0 z m -0.480468,0.291016 c -0.01368,0.02022 -0.02617,0.04103 -0.03906,0.0625 -0.01038,0.03734 -0.01449,0.06716 -0.002,0.04297 0.01713,-0.03306 0.02677,-0.07074 0.04102,-0.105469 z m -2.708985,1.203125 c -0.0044,0.0076 -0.01189,0.0086 -0.01563,0.01758 -0.07183,0.172779 -0.129007,0.328024 -0.18164,0.480469 8.21e-4,0.01623 0.0011,0.03246 0.002,0.04883 0.0057,-0.0032 0.01424,-0.01122 0.01953,-0.01367 0.0038,-0.0018 0.01462,0.0029 0.01172,0.0059 -0.0096,0.0099 -0.01967,0.01941 -0.0293,0.0293 0.0014,0.02757 5.7e-4,0.05414 0.002,0.08203 0.0017,9.89e-4 0.0061,0.0029 0.0078,0.0039 l 0.65625,-0.375 c -0.155328,-0.09163 -0.330228,-0.196533 -0.472657,-0.279297 z m 1.976563,24.253906 -1.033203,0.591797 c 0.09164,0.0015 0.183783,0.0027 0.27539,0.0039 0.06648,8.86e-4 0.125757,0.0085 0.1875,0.01367 0.14719,-0.05937 0.299051,-0.111035 0.431641,-0.197266 0.04166,-0.02709 0.07427,-0.06478 0.111328,-0.09766 0.03032,-0.09581 0.06598,-0.188102 0.109375,-0.27539 -0.03201,-0.0073 -0.05399,-0.02688 -0.08203,-0.03906 z m -26.945313,0.349609 c -0.002,-0.004 0.0038,0.02971 0.0039,0.03516 0.01098,0.02887 0.02198,0.05676 0.0332,0.08594 -0.01621,-0.05905 -0.03116,-0.108969 -0.03711,-0.121094 z m 10.980469,1.669922 c -0.208822,0.194385 -0.399481,0.364021 -0.585937,0.523438 0.0036,0.01492 0.0062,0.03 0.0098,0.04492 l 0.867188,-0.498047 c -0.09697,-0.02381 -0.193669,-0.04779 -0.291016,-0.07031 z m 13.480469,0.113282 c -0.0081,0.09038 -0.01076,0.180768 -0.01563,0.271484 0.0057,-0.08227 0.01642,-0.182592 0.02148,-0.257812 -0.0017,-0.0033 -0.0054,-0.01858 -0.0059,-0.01367 z m -0.496094,1.949218 c -0.03048,0.0057 -0.06137,0.0097 -0.0918,0.01563 -0.0327,0.03118 -0.06471,0.06292 -0.09766,0.09375 z" />
<path
   class="st1"
   d="m 45.008672,79.423371 c 15.8,-2.7 26.3,-17.8 23.5,-33.5 -2.8,-15.7 -17.8,-26.3 -33.5,-23.5 -15.7,2.8 -26.3000004,17.8 -23.5,33.5 2.4,13.9 14.4,24 28.5,24"
   id="path6"
   style="fill:none;stroke:#ffffff;stroke-width:2;stroke-linecap:round;stroke-linejoin:round" />
   <g
   id="g205"
   transform="matrix(1.2662425,0,0,1.1428147,-9.9419744,6.0319122)"><g
     id="g163"><line
       class="st1"
       x1="40"
       y1="44.099998"
       x2="40"
       y2="56.5"
       id="line157" /><line
       class="st1"
       x1="40"
       y1="48.099998"
       x2="36"
       y2="52.099998"
       id="line159" /><line
       class="st1"
       x1="40"
       y1="48.099998"
       x2="44"
       y2="52.099998"
       id="line161" /></g><g
     id="g171"><line
       class="st1"
       x1="40"
       y1="35.900002"
       x2="40"
       y2="23.5"
       id="line165" /><line
       class="st1"
       x1="40"
       y1="31.9"
       x2="44"
       y2="27.9"
       id="line167" /><line
       class="st1"
       x1="40"
       y1="31.9"
       x2="36"
       y2="27.9"
       id="line169" /></g><g
     id="g179"><line
       class="st1"
       x1="36.5"
       y1="38"
       x2="25.700001"
       y2="31.700001"
       id="line173" /><line
       class="st1"
       x1="33"
       y1="36"
       x2="31.5"
       y2="30.4"
       id="line175" /><line
       class="st1"
       x1="33"
       y1="36"
       x2="27.5"
       y2="37.400002"
       id="line177" /></g><g
     id="g187"><line
       class="st1"
       x1="43.5"
       y1="42"
       x2="54.299999"
       y2="48.299999"
       id="line181" /><line
       class="st1"
       x1="47"
       y1="44"
       x2="48.5"
       y2="49.599998"
       id="line183" /><line
       class="st1"
       x1="47"
       y1="44"
       x2="52.5"
       y2="42.599998"
       id="line185" /></g><g
     id="g195"><line
       class="st1"
       x1="43.5"
       y1="38"
       x2="54.299999"
       y2="31.700001"
       id="line189" /><line
       class="st1"
       x1="47"
       y1="36"
       x2="48.5"
       y2="30.4"
       id="line191" /><line
       class="st1"
       x1="47"
       y1="36"
       x2="52.5"
       y2="37.400002"
       id="line193" /></g><g
     id="g203"><line
       class="st1"
       x1="36.5"
       y1="42"
       x2="25.700001"
       y2="48.299999"
       id="line197" /><line
       class="st1"
       x1="33"
       y1="44"
       x2="31.5"
       y2="49.599998"
       id="line199" /><line
       class="st1"
       x1="33"
       y1="44"
       x2="27.5"
       y2="42.599998"
       id="line201" /></g></g></g>
</svg>
