<?xml version="1.0" encoding="UTF-8" standalone="no"?>
<!-- Generator: Adobe Illustrator 19.1.1, SVG Export Plug-In . SVG Version: 6.00 Build 0)  -->

<svg
   version="1.1"
   id="Layer_1"
   x="0px"
   y="0px"
   viewBox="0 11 80 80"
   style="enable-background:new 0 11 80 80;"
   xml:space="preserve"
   sodipodi:docname="competent_authorities.svg"
   inkscape:version="1.1.2 (1:1.1+202202050950+0a00cf5339)"
   xmlns:inkscape="http://www.inkscape.org/namespaces/inkscape"
   xmlns:sodipodi="http://sodipodi.sourceforge.net/DTD/sodipodi-0.dtd"
   xmlns="http://www.w3.org/2000/svg"
   xmlns:svg="http://www.w3.org/2000/svg"><defs
   id="defs11" /><sodipodi:namedview
   id="namedview9"
   pagecolor="#ffffff"
   bordercolor="#666666"
   borderopacity="1.0"
   inkscape:pageshadow="2"
   inkscape:pageopacity="0.0"
   inkscape:pagecheckerboard="true"
   showgrid="false"
   inkscape:zoom="8.0597364"
   inkscape:cx="33.499855"
   inkscape:cy="33.685965"
   inkscape:window-width="1920"
   inkscape:window-height="960"
   inkscape:window-x="0"
   inkscape:window-y="27"
   inkscape:window-maximized="1"
   inkscape:current-layer="Layer_1-3" />
<style
   type="text/css"
   id="style2">
	.st0{fill:#FFFFFF;}
</style>

<g
   id="Layer_1-3"
   data-name="Layer 1"
   transform="matrix(1.1462575,0,0,1.166882,8.980832,16.608309)"><path
     class="st1"
     d="M 31.99952,53.75519 C 45.783508,51.441332 54.943753,38.500863 52.501021,25.046204 50.058289,11.591544 36.972224,2.5075066 23.275476,4.9070637 9.5787294,7.3066208 0.33124535,20.161391 2.773977,33.61605 4.8677462,45.528138 15.336597,54.183683 27.637498,54.183683"
     id="path6"
     style="fill:none;stroke:#ffffff;stroke-width:1.72932;stroke-linecap:round;stroke-linejoin:round" /><g
     id="g4"
     transform="matrix(0.06329904,0,0,0.06540262,11.68945,11.48104)"><path
       d="m 256,9.3 -9.3,4.7 -213.4,104.7 -12,6 v 36.7 h 469.3 v -36.7 l -12,-6 L 265.3,14 Z m 0,48 125.3,61.3 H 130.7 Z M 64,182.7 V 396 H 42.7 v 42.7 H 469.4 V 396 H 448 V 182.7 H 405.3 V 396 H 362.6 V 182.7 H 320 V 396 H 277.3 V 182.7 H 234.6 V 396 H 192 V 182.7 H 149.3 V 396 H 106.6 V 182.7 Z M 0,460 v 42.7 H 512 V 460 Z"
       id="path2" style="fill:#ffffff;stroke:#ffffff;stroke-width:1.72932;stroke-linecap:round;stroke-linejoin:round"/></g></g></svg>
