<?xml version="1.0" encoding="utf-8"?>
<!-- Generator: Adobe Illustrator 19.1.1, SVG Export Plug-In . SVG Version: 6.00 Build 0)  -->
<svg version="1.1" id="Layer_1" xmlns="http://www.w3.org/2000/svg" xmlns:xlink="http://www.w3.org/1999/xlink" x="0px" y="0px"
	 viewBox="0 11 80 80" style="enable-background:new 0 11 80 80;" xml:space="preserve">
<style type="text/css">
	.st0{fill:#FFFFFF;}
</style>
<g>
	<path class="st0" d="M40,80.9c-14.6,0-27-10.4-29.5-24.8c-1.4-7.8,0.4-15.8,5-22.3S27,22.9,34.8,21.5s15.8,0.4,22.3,5
		S68,38,69.4,45.8c1.4,7.9-0.4,15.9-5,22.4C60,74.7,53,79,45.3,80.4c-0.5,0.1-1.1-0.3-1.2-0.8c-0.1-0.5,0.3-1.1,0.8-1.2
		c7.3-1.3,13.7-5.3,18-11.4s6-13.6,4.6-20.9c-1.3-7.3-5.4-13.8-11.5-18c-6.1-4.3-13.5-6-20.8-4.6c-7.3,1.3-13.8,5.4-18,11.5
		c-4.3,6.1-6,13.5-4.6,20.8C14.8,69.1,26.4,78.9,40,78.9c0.6,0,1,0.4,1,1S40.6,80.9,40,80.9z M48,67.8c-0.2,0-0.3,0-0.5-0.1L40,63.3
		l-7.5,4.3c-0.3,0.2-0.7,0.2-1,0l-8-4.6c-0.3-0.1-0.5-0.5-0.5-0.8V35c0-0.4,0.2-0.7,0.5-0.9s0.7-0.2,1,0l7.5,4.3l7.5-4.3
		c0.3-0.2,0.7-0.2,1,0l7.5,4.3l7.5-4.3c0.5-0.3,1.1-0.1,1.4,0.4c0.3,0.5,0.1,1.1-0.4,1.4L49,40.2v21.2c0,0.6-0.4,1-1,1s-1-0.4-1-1
		V40.2l-7-4l-7,4v21.2c0,0.6-0.4,1-1,1s-1-0.4-1-1V40.2l-6-3.4v24.9l7,4l7-4V40.4c0-0.6,0.4-1,1-1s1,0.4,1,1v21.2l7,4l7-4V39.4
		c0-0.6,0.4-1,1-1s1,0.4,1,1v22.8c0,0.4-0.2,0.7-0.5,0.9l-8,4.6C48.3,67.7,48.3,67.8,48,67.8z"/>
</g>
</svg>
