<?xml version="1.0" encoding="UTF-8" standalone="no"?>
<!-- Generator: Adobe Illustrator 19.1.1, SVG Export Plug-In . SVG Version: 6.00 Build 0)  -->

<svg
   version="1.1"
   id="Layer_1"
   x="0px"
   y="0px"
   viewBox="0 11 80 80"
   style="enable-background:new 0 11 80 80;"
   xml:space="preserve"
   sodipodi:docname="taric.svg"
   inkscape:version="1.2 (1:1.2+202206011327+fc4e4096c5)"
   xmlns:inkscape="http://www.inkscape.org/namespaces/inkscape"
   xmlns:sodipodi="http://sodipodi.sourceforge.net/DTD/sodipodi-0.dtd"
   xmlns="http://www.w3.org/2000/svg"
   xmlns:svg="http://www.w3.org/2000/svg"><defs
   id="defs11" /><sodipodi:namedview
   id="namedview9"
   pagecolor="#ffffff"
   bordercolor="#666666"
   borderopacity="1.0"
   inkscape:pageshadow="2"
   inkscape:pageopacity="0.0"
   inkscape:pagecheckerboard="true"
   showgrid="false"
   inkscape:zoom="9.85"
   inkscape:cx="38.274112"
   inkscape:cy="48.883249"
   inkscape:window-width="1920"
   inkscape:window-height="960"
   inkscape:window-x="0"
   inkscape:window-y="27"
   inkscape:window-maximized="1"
   inkscape:current-layer="g6"
   inkscape:showpageshadow="2"
   inkscape:deskcolor="#d1d1d1" />
<style
   type="text/css"
   id="style2">
	.st0{fill:#FFFFFF;}
</style>
<g
   id="g6">
	<path
   id="path4"
   class="st0"
   transform="translate(0,11)"
   d="M 40.660156,10.042969 C 38.711719,9.9992188 36.750781,10.15 34.800781,10.5 27.000781,11.9 20.1,16.300781 15.5,22.800781 c -4.6,6.5 -6.4,14.498828 -5,22.298828 2.5,14.4 14.9,24.800782 29.5,24.800782 0.6,0 1,-0.4 1,-1 0,-0.6 -0.4,-1 -1,-1 -13.6,0 -25.200391,-9.79961 -27.400391,-23.09961 -1.4,-7.3 0.29961,-14.700781 4.59961,-20.800781 4.2,-6.1 10.7,-10.2 18,-11.5 7.3,-1.4 14.700781,0.299609 20.800781,4.599609 6.1,4.2 10.2,10.7 11.5,18 C 68.9,42.399609 67.200391,49.9 62.900391,56 c -4.3,6.1 -10.7,10.100391 -18,11.400391 -0.5,0.1 -0.900782,0.699218 -0.800782,1.199218 0.1,0.5 0.701172,0.900782 1.201172,0.800782 7.7,-1.4 14.69961,-5.701172 19.09961,-12.201172 4.6,-6.5 6.4,-14.498438 5,-22.398438 -1.4,-7.8 -5.800782,-14.700781 -12.300782,-19.300781 -4.875,-3.45 -10.59414,-5.325781 -16.439453,-5.457031 z m -0.726562,12.916015 c -0.152287,0.01114 -0.302758,0.0534 -0.433594,0.140625 l -0.214844,0.123047 c 0.216811,-0.08643 0.432876,-0.174251 0.648438,-0.263672 z m 14.515625,1.908204 c -0.02199,0.0017 0.03481,0.1198 0.113281,0.269531 2.58e-4,-0.04668 0.0035,-0.08772 0.0059,-0.132813 -0.02244,-0.03057 -0.03813,-0.06603 -0.06445,-0.09375 -0.02916,-0.03071 -0.0468,-0.04359 -0.05469,-0.04297 z m 0.140625,0.169921 c 0.0034,0.0682 0.0084,0.135675 0.01758,0.185547 0.05298,0.09877 0.09375,0.181917 0.148437,0.283203 0,0 0.002,0 0.002,0 0.01079,-0.0061 0.01316,-0.01062 0.02539,-0.01758 -0.0037,0.0076 -0.0061,0.01582 -0.0098,0.02344 0.02105,0.01297 0.04586,0.02446 0.07031,0.03516 -0.07214,-0.179105 -0.148968,-0.354643 -0.253906,-0.509766 z m 0.183594,0.47461 c -0.0045,-0.0027 -0.01132,-0.003 -0.01563,-0.0059 0.0037,0.0069 0.0061,0.01269 0.0098,0.01953 0.0021,-0.0045 0.0037,-0.0092 0.0059,-0.01367 z M 55.037109,25.625 c 0.0243,0.0094 0.04805,0.01979 0.07422,0.03125 3.45e-4,-0.0065 0.0016,-0.01301 0.002,-0.01953 -0.02553,-0.0029 -0.05055,-0.01007 -0.07617,-0.01172 z m -0.185547,0.0039 c 0.01573,0.01713 0.03267,0.03233 0.04883,0.04883 -0.0072,-0.01614 -0.01453,-0.03249 -0.02148,-0.04883 -0.0091,3.69e-4 -0.01822,-5.43e-4 -0.02734,0 z m -0.480468,0.291016 c -0.01368,0.02022 -0.02617,0.04103 -0.03906,0.0625 -0.01038,0.03734 -0.01449,0.06716 -0.002,0.04297 0.01713,-0.03306 0.02677,-0.07074 0.04102,-0.105469 z m -2.708985,1.203125 c -0.0044,0.0076 -0.01189,0.0086 -0.01563,0.01758 -0.07183,0.172779 -0.129007,0.328024 -0.18164,0.480469 8.21e-4,0.01623 0.0011,0.03246 0.002,0.04883 0.0057,-0.0032 0.01424,-0.01122 0.01953,-0.01367 0.0038,-0.0018 0.01462,0.0029 0.01172,0.0059 -0.0096,0.0099 -0.01967,0.01941 -0.0293,0.0293 0.0014,0.02757 5.7e-4,0.05414 0.002,0.08203 0.0017,9.89e-4 0.0061,0.0029 0.0078,0.0039 l 0.65625,-0.375 c -0.155328,-0.09163 -0.330228,-0.196533 -0.472657,-0.279297 z m 1.976563,24.253906 -1.033203,0.591797 c 0.09164,0.0015 0.183783,0.0027 0.27539,0.0039 0.06648,8.86e-4 0.125757,0.0085 0.1875,0.01367 0.14719,-0.05937 0.299051,-0.111035 0.431641,-0.197266 0.04166,-0.02709 0.07427,-0.06478 0.111328,-0.09766 0.03032,-0.09581 0.06598,-0.188102 0.109375,-0.27539 -0.03201,-0.0073 -0.05399,-0.02688 -0.08203,-0.03906 z m -26.945313,0.349609 c -0.002,-0.004 0.0038,0.02971 0.0039,0.03516 0.01098,0.02887 0.02198,0.05676 0.0332,0.08594 -0.01621,-0.05905 -0.03116,-0.108969 -0.03711,-0.121094 z m 10.980469,1.669922 c -0.208822,0.194385 -0.399481,0.364021 -0.585937,0.523438 0.0036,0.01492 0.0062,0.03 0.0098,0.04492 l 0.867188,-0.498047 c -0.09697,-0.02381 -0.193669,-0.04779 -0.291016,-0.07031 z m 13.480469,0.113282 c -0.0081,0.09038 -0.01076,0.180768 -0.01563,0.271484 0.0057,-0.08227 0.01642,-0.182592 0.02148,-0.257812 -0.0017,-0.0033 -0.0054,-0.01858 -0.0059,-0.01367 z m -0.496094,1.949218 c -0.03048,0.0057 -0.06137,0.0097 -0.0918,0.01563 -0.0327,0.03118 -0.06471,0.06292 -0.09766,0.09375 z" />
<path
   class="st1"
   d="m 45.008672,79.423371 c 15.8,-2.7 26.3,-17.8 23.5,-33.5 -2.8,-15.7 -17.8,-26.3 -33.5,-23.5 -15.7,2.8 -26.3000004,17.8 -23.5,33.5 2.4,13.9 14.4,24 28.5,24"
   id="path6"
   style="fill:none;stroke:#ffffff;stroke-width:2;stroke-linecap:round;stroke-linejoin:round" /><path
   d="m 25.47654,70.738223 c -0.427901,-0.250875 -0.76535,-0.696865 -0.960107,-1.26893 -0.11743,-0.344942 -0.157068,-0.868712 -0.187506,-2.477712 l -0.03858,-2.040305 -1.608891,-0.03942 c -1.358184,-0.03329 -1.655995,-0.07093 -1.911128,-0.241534 -0.421222,-0.281667 -0.680115,-0.600651 -0.871934,-1.074314 -0.157328,-0.388498 -0.164241,-0.761982 -0.162882,-8.802794 l 0.0014,-8.397082 0.193602,-0.432858 c 0.256115,-0.572604 0.775455,-1.016384 1.348102,-1.151965 0.609394,-0.14428 2.737324,-0.142064 2.951473,0.0031 0.16326,0.110644 0.167029,0.33781 0.167029,10.060337 v 9.947137 l 7.750171,0.0017 c 4.262587,9.15e-4 7.801775,0.04311 7.864863,0.09376 0.09057,0.0727 0.108732,0.538295 0.08636,2.212691 -0.02788,2.087193 -0.03212,2.128683 -0.266151,2.632886 -0.258016,0.555816 -0.547267,0.85973 -1.005613,1.056597 -0.211356,0.09078 -2.07275,0.125403 -6.649164,0.123676 -6.002075,-0.0022 -6.37485,-0.01367 -6.701049,-0.204915 z m 16.709265,-2.788152 c 0,-2.630596 0.01661,-3.003552 0.136597,-3.06184 0.07513,-0.03651 2.582706,-0.06637 5.57241,-0.06637 h 5.435826 l -0.02424,-1.339555 -0.02423,-1.339555 -4.339233,-0.02835 c -2.675704,-0.01749 -4.339225,-0.06829 -4.339225,-0.13252 0,-0.05729 2.249176,-3.931982 4.99817,-8.610417 l 4.998163,-8.506248 0.405144,0.01838 c 1.146282,0.05202 2.197059,1.417734 2.464431,3.203072 0.05485,0.366435 0.08701,4.694911 0.08701,11.719946 v 11.13892 h -7.6854 -7.6854 z M 31.776762,64.016278 c -0.465465,-0.27448 -0.857016,-0.780152 -1.045786,-1.350602 -0.178686,-0.539963 -0.147395,-1.493651 0.06638,-2.024372 0.100568,-0.249638 2.141927,-3.688154 4.536351,-7.641147 4.714796,-7.783731 4.637875,-7.675186 5.683716,-8.020146 0.764437,-0.252141 11.039952,-0.256385 10.997314,-0.0045 -0.03941,0.232758 -9.647943,16.347137 -9.747325,16.347137 -0.05018,0 -0.08164,-2.103836 -0.08164,-5.461119 0,-3.067653 -0.03364,-5.48745 -0.07676,-5.521194 -0.04222,-0.03304 -1.796062,2.830431 -3.897431,6.36327 -2.101376,3.532839 -3.941771,6.58758 -4.089771,6.788319 -0.60605,0.822013 -1.500996,1.022136 -2.345086,0.524394 z m 15.89245,-20.855587 c -1.822553,-0.299391 -3.286204,-2.090297 -3.579594,-4.379937 -0.04901,-0.382432 -0.08939,-0.730581 -0.08975,-0.773647 -3.92e-4,-0.04307 -0.415222,-0.09229 -0.921918,-0.109352 -0.530475,-0.01788 -0.933711,-0.07859 -0.950605,-0.143135 -0.01613,-0.06166 0.331223,-0.676754 0.771906,-1.366895 l 0.801233,-1.254798 h 4.402245 4.402239 l 0.02506,1.421567 c 0.0313,1.779092 -0.08751,2.698704 -0.475688,3.681287 -0.807212,2.043276 -2.574818,3.222285 -4.385097,2.92491 z M 43.636783,33.738697 C 43.497365,33.598968 41.859676,30.62988 41.676508,30.184772 l -0.101251,-0.24604 h 5.433197 5.433197 l 0.05203,0.24604 c 0.08838,0.417616 0.05986,3.254718 -0.03494,3.479102 -0.08654,0.204768 -0.226464,0.21151 -4.387486,0.21151 -3.308171,0 -4.329511,-0.03146 -4.434482,-0.136687 z"
   id="path4101"
   style="fill:#ffffff;stroke-width:0.0971739" /></g>
</svg>
