<?xml version="1.0" encoding="UTF-8" standalone="no"?>
<!-- Generator: Adobe Illustrator 19.1.1, SVG Export Plug-In . SVG Version: 6.00 Build 0)  -->

<svg
   version="1.1"
   id="Layer_1"
   x="0px"
   y="0px"
   viewBox="0 11 80 80"
   style="enable-background:new 0 11 80 80;"
   xml:space="preserve"
   sodipodi:docname="whistleblower.svg"
   inkscape:version="1.1.2 (1:1.1+202202050950+0a00cf5339)"
   xmlns:inkscape="http://www.inkscape.org/namespaces/inkscape"
   xmlns:sodipodi="http://sodipodi.sourceforge.net/DTD/sodipodi-0.dtd"
   xmlns="http://www.w3.org/2000/svg"
   xmlns:svg="http://www.w3.org/2000/svg"><defs
   id="defs11" /><sodipodi:namedview
   id="namedview9"
   pagecolor="#ffffff"
   bordercolor="#666666"
   borderopacity="1.0"
   inkscape:pageshadow="2"
   inkscape:pageopacity="0.0"
   inkscape:pagecheckerboard="true"
   showgrid="false"
   inkscape:zoom="8.58"
   inkscape:cx="20.39627"
   inkscape:cy="39.918415"
   inkscape:window-width="1920"
   inkscape:window-height="960"
   inkscape:window-x="1920"
   inkscape:window-y="27"
   inkscape:window-maximized="1"
   inkscape:current-layer="Layer_1-3" />
<style
   type="text/css"
   id="style2">
	.st0{fill:#FFFFFF;}
</style>

<g
   id="Layer_1-3"
   data-name="Layer 1"
   transform="matrix(1.1462575,0,0,1.166882,8.980832,16.608309)"><path
     class="cls-1"
     d="m 13.703539,42.48955 a 9.7815487,9.7815487 0 0 0 4.845144,1.261065 8.5121874,8.5121874 0 0 0 7.831876,-4.68751 2.3396071,2.3396071 0 0 1 0.746683,-0.89602 2.8705817,2.8705817 0 0 1 1.700778,-0.464603 9.1261268,9.1261268 0 0 1 3.567486,0.954095 l 7.383866,3.924235 v 0 l 0.157633,0.05807 v 0 h 0.16593 v 0 h 0.157633 v 0 l 0.149337,-0.06637 v 0 l 0.149336,-0.116151 6.869485,-6.728444 a 0.7466831,0.7466831 0 0 0 0.232301,-0.539268 v -5.210189 0 -0.04148 A 0.75497958,0.75497958 0 0 0 47.287686,29.381114 L 39.497292,24.98398 29.259437,19.176445 a 13.349035,13.349035 0 0 0 -6.19747,-1.924784 7.9895092,7.9895092 0 0 0 -5.467379,1.966266 v 0 l -1.617814,1.509959 -0.132743,-0.149336 a 3.7748979,3.7748979 0 1 0 -5.459085,5.210188 l 0.14104,0.14104 -0.132743,0.149337 A 10.412081,10.412081 0 0 0 7.9042991,32.9486 v 0.04148 0 c 0.024889,4.330762 1.7837433,7.168158 5.7992399,9.499468 z m 32.56368,-7.715725 v 0.05807 L 40.91599,40.07527 v -3.053104 l 5.351229,-5.152114 z M 34.27051,23.706322 l 11.283212,6.371696 0.240598,0.132744 -5.707978,5.500565 -0.132744,-0.04978 -11.299804,-6.379992 -0.240598,-0.132744 5.724571,-5.517158 z m -4.388837,-2.488944 0.132744,0.07467 2.488943,1.410401 0.240598,0.132744 -5.72457,5.525455 -0.14104,-0.07467 -2.596798,-1.46018 -0.240598,-0.14104 z M 18.731205,20.38773 v 0 a 6.4214747,6.4214747 0 0 1 4.463506,-1.576331 v 0 a 11.94693,11.94693 0 0 1 4.977887,1.518256 l 0.257191,0.14104 -5.683088,5.318043 -0.132744,0.157633 -0.149336,-0.08296 -0.547568,-0.30697 a 13.274366,13.274366 0 0 0 -6.056429,-1.924787 h -0.365046 -0.597346 z m -5.683089,0.506086 a 2.2483458,2.2483458 0 0 1 1.659297,0.7052 l 0.149336,0.157634 -3.434743,2.94525 -0.132743,-0.16593 a 2.2483458,2.2483458 0 0 1 1.758853,-3.658747 z m -1.29425,5.973465 a 5.716274,5.716274 0 0 1 4.14824,-1.725668 h 0.14104 0.315266 a 8.6532275,8.6532275 0 0 1 1.111728,0.190819 14.104014,14.104014 0 0 1 3.750009,1.501663 l 18.061435,10.171483 0.107854,0.05808 v 3.575783 l -6.321917,-3.318592 v 0 a 10.495046,10.495046 0 0 0 -4.272687,-1.128321 3.9574204,3.9574204 0 0 0 -3.808084,2.198567 6.6371831,6.6371831 0 0 1 -3.376667,3.22733 8.089067,8.089067 0 0 1 -3.094586,0.61394 8.2964789,8.2964789 0 0 1 -4.081868,-1.045357 10.594604,10.594604 0 0 1 -3.766602,-3.467928 8.7527853,8.7527853 0 0 1 -1.2444726,-4.7124 v 0 -0.04148 a 8.8025641,8.8025641 0 0 1 2.3313116,-6.114505 z"
     id="path8"
     style="fill:#ffffff;stroke-width:0.829648" /><path
     class="cls-1"
     d="m 36.128922,15.584069 a 0.70520071,0.70520071 0 0 0 0.09956,-0.373341 0.75497958,0.75497958 0 0 0 -0.381638,-0.663719 0.82964789,0.82964789 0 0 0 -0.373341,-0.09956 0.75497958,0.75497958 0 0 0 -0.663719,0.381638 l -1.659295,2.986732 a 0.76327606,0.76327606 0 0 0 -0.09956,0.373342 0.77157254,0.77157254 0 0 0 0.381638,0.663718 0.82964789,0.82964789 0 0 0 0.381638,0.09956 0.76327606,0.76327606 0 0 0 0.663718,-0.389935 l 0.174226,0.107854 -0.174226,-0.107854 z"
     id="path10"
     style="fill:#ffffff;stroke-width:0.829648" /><path
     class="cls-1"
     d="m 40.484573,18.139385 a 0.73838662,0.73838662 0 0 0 -0.116151,-0.389935 0.7466831,0.7466831 0 0 0 -0.663718,-0.340155 0.77986902,0.77986902 0 0 0 -0.398231,0.107854 l -2.920361,1.733964 a 0.76327606,0.76327606 0 0 0 -0.373341,0.655422 0.7466831,0.7466831 0 0 0 0.107854,0.389934 0.76327606,0.76327606 0 0 0 0.655422,0.365045 0.77986902,0.77986902 0 0 0 0.398231,-0.107854 l 2.912064,-1.758853 0.107854,0.174226 -0.107854,-0.174226 a 0.77157254,0.77157254 0 0 0 0.398231,-0.655422 z"
     id="path12"
     style="fill:#ffffff;stroke-width:0.829648" /><path
     class="cls-1"
     d="m 30.777693,12.30696 a 0.77986902,0.77986902 0 0 0 -0.771573,0.75498 v 3.418149 a 0.75497958,0.75497958 0 0 0 0.75498,0.754979 v 0 a 0.75497958,0.75497958 0 0 0 0.763276,-0.754979 v -3.409853 0 A 0.76327606,0.76327606 0 0 0 30.777693,12.30696 Z"
     id="path14"
     style="fill:#ffffff;stroke-width:0.829648" /><path
     class="st1"
     d="M 31.99952,53.75519 C 45.783508,51.441332 54.943753,38.500863 52.501021,25.046204 50.058289,11.591544 36.972224,2.5075066 23.275476,4.9070637 9.5787294,7.3066208 0.33124535,20.161391 2.773977,33.61605 4.8677462,45.528138 15.336597,54.183683 27.637498,54.183683"
     id="path6"
     style="fill:none;stroke:#ffffff;stroke-width:1.72932;stroke-linecap:round;stroke-linejoin:round" /></g></svg>
